<svg width="6" height="10" viewBox="0 0 6 10" fill="none" xmlns="http://www.w3.org/2000/svg">
<path d="M1.81189 3.648C2.25989 3.552 2.67189 3.504 3.04789 3.504C3.49589 3.504 3.89189 3.57 4.23589 3.702C4.57989 3.834 4.86589 4.016 5.09389 4.248C5.32589 4.48 5.49989 4.754 5.61589 5.07C5.73589 5.386 5.79589 5.73 5.79589 6.102C5.79589 6.558 5.71589 6.97 5.55589 7.338C5.39989 7.706 5.18189 8.022 4.90189 8.286C4.62589 8.546 4.29989 8.746 3.92389 8.886C3.54789 9.026 3.14189 9.096 2.70589 9.096C2.45389 9.096 2.21189 9.07 1.97989 9.018C1.74789 8.97 1.52989 8.904 1.32589 8.82C1.12589 8.736 0.939893 8.64 0.767893 8.532C0.595893 8.424 0.443893 8.31 0.311893 8.19L0.641893 7.734C0.713893 7.63 0.807893 7.578 0.923893 7.578C1.00389 7.578 1.09389 7.61 1.19389 7.674C1.29389 7.734 1.41589 7.802 1.55989 7.878C1.70389 7.954 1.87189 8.024 2.06389 8.088C2.25989 8.148 2.49189 8.178 2.75989 8.178C3.05989 8.178 3.32989 8.13 3.56989 8.034C3.80989 7.938 4.01589 7.802 4.18789 7.626C4.35989 7.446 4.49189 7.232 4.58389 6.984C4.67589 6.736 4.72189 6.458 4.72189 6.15C4.72189 5.882 4.68189 5.64 4.60189 5.424C4.52589 5.208 4.40789 5.024 4.24789 4.872C4.09189 4.72 3.89589 4.602 3.65989 4.518C3.42389 4.434 3.14789 4.392 2.83189 4.392C2.61589 4.392 2.38989 4.41 2.15389 4.446C1.92189 4.482 1.68389 4.54 1.43989 4.62L0.767893 4.422L1.45789 0.401999H5.53189V0.87C5.53189 1.022 5.48389 1.148 5.38789 1.248C5.29589 1.344 5.13589 1.392 4.90789 1.392H2.20789L1.81189 3.648Z" fill="white"/>
</svg>
